<svg width="34" height="32" viewBox="0 0 34 32" fill="none" xmlns="http://www.w3.org/2000/svg">
<path d="M26.8823 8.94119C26.561 8.94439 26.2426 9.00307 25.9412 9.11465C26.4911 9.30644 26.9678 9.66458 27.3051 10.1394C27.6424 10.6143 27.8236 11.1823 27.8236 11.7647C27.8236 12.3472 27.6424 12.9152 27.3051 13.39C26.9678 13.8649 26.4911 14.223 25.9412 14.4148C26.2426 14.5264 26.561 14.5851 26.8823 14.5883C27.6312 14.5883 28.3494 14.2908 28.8789 13.7613C29.4084 13.2317 29.7059 12.5136 29.7059 11.7647C29.7059 11.0159 29.4084 10.2977 28.8789 9.76819C28.3494 9.23867 27.6312 8.94119 26.8823 8.94119Z" fill="#E6E6E6"/>
<path d="M7.11766 8.94119C7.43903 8.94439 7.75744 9.00307 8.05884 9.11465C7.50888 9.30644 7.0322 9.66458 6.69491 10.1394C6.35761 10.6143 6.17641 11.1823 6.17641 11.7647C6.17641 12.3472 6.35761 12.9152 6.69491 13.39C7.0322 13.8649 7.50888 14.223 8.05884 14.4148C7.75744 14.5264 7.43903 14.5851 7.11766 14.5883C6.36881 14.5883 5.65064 14.2908 5.12112 13.7613C4.59161 13.2317 4.29413 12.5136 4.29413 11.7647C4.29413 11.0159 4.59161 10.2977 5.12112 9.76819C5.65064 9.23867 6.36881 8.94119 7.11766 8.94119Z" fill="#E6E6E6"/>
<path d="M17 8.94119C16.6819 8.94532 16.3656 8.99024 16.0588 9.07484C16.8662 9.28006 17.5821 9.74849 18.0934 10.4061C18.6047 11.0637 18.8824 11.8729 18.8824 12.7059C18.8824 13.5389 18.6047 14.3481 18.0934 15.0057C17.5821 15.6633 16.8662 16.1317 16.0588 16.337C16.3656 16.4216 16.6819 16.4665 17 16.4706C17.9985 16.4706 18.956 16.074 19.6621 15.3679C20.3681 14.6619 20.7647 13.7044 20.7647 12.7059C20.7647 11.7074 20.3681 10.7499 19.6621 10.0438C18.956 9.33783 17.9985 8.94119 17 8.94119Z" fill="#E6E6E6"/>
<path d="M19.1842 16.8506C20.1164 16.3622 20.858 15.5753 21.2904 14.6158C21.7228 13.6563 21.821 12.5796 21.5695 11.5577C21.318 10.5357 20.7312 9.62762 19.9028 8.97844C19.0745 8.32925 18.0524 7.97647 17 7.97647C15.9476 7.97647 14.9255 8.32925 14.0972 8.97844C13.2689 9.62762 12.682 10.5357 12.4305 11.5577C12.179 12.5796 12.2773 13.6563 12.7097 14.6158C13.1421 15.5753 13.8836 16.3622 14.8158 16.8506C13.506 17.407 12.3894 18.3374 11.606 19.5255C10.8226 20.7135 10.4072 22.1063 10.4118 23.5294C10.4118 23.6542 10.4614 23.7739 10.5496 23.8622C10.6379 23.9504 10.7576 24 10.8824 24C11.0072 24 11.1269 23.9504 11.2151 23.8622C11.3034 23.7739 11.353 23.6542 11.353 23.5294C11.353 20.4154 13.886 17.4118 17 17.4118C20.114 17.4118 22.6471 20.4154 22.6471 23.5294C22.6471 23.6542 22.6967 23.7739 22.7849 23.8622C22.8732 23.9504 22.9929 24 23.1177 24C23.2425 24 23.3622 23.9504 23.4504 23.8622C23.5387 23.7739 23.5883 23.6542 23.5883 23.5294C23.5929 22.1063 23.1774 20.7135 22.394 19.5255C21.6106 18.3374 20.4941 17.407 19.1842 16.8506ZM13.2353 12.7059C13.2353 11.9613 13.4561 11.2334 13.8698 10.6143C14.2834 9.99523 14.8714 9.5127 15.5593 9.22776C16.2472 8.94282 17.0042 8.86826 17.7345 9.01352C18.4648 9.15879 19.1356 9.51734 19.6621 10.0438C20.1886 10.5703 20.5471 11.2412 20.6924 11.9714C20.8376 12.7017 20.7631 13.4587 20.4782 14.1466C20.1932 14.8345 19.7107 15.4225 19.0916 15.8361C18.4725 16.2498 17.7446 16.4706 17 16.4706C16.0019 16.4695 15.045 16.0724 14.3392 15.3667C13.6335 14.6609 13.2365 13.704 13.2353 12.7059Z" fill="#4D4D4D" stroke="#4D4D4D" stroke-width="0.5"/>
<path d="M28.8965 14.9359C29.5858 14.4996 30.1147 13.8511 30.4036 13.0882C30.6925 12.3253 30.7258 11.4892 30.4984 10.7057C30.2711 9.92223 29.7953 9.23382 29.1429 8.74409C28.4905 8.25436 27.6966 7.98981 26.8808 7.99027C26.065 7.99072 25.2714 8.25616 24.6195 8.74663C23.9676 9.23709 23.4927 9.92604 23.2662 10.7098C23.0397 11.4935 23.0739 12.3296 23.3637 13.0922C23.6534 13.8548 24.1831 14.5026 24.8729 14.9382C23.6312 15.3706 22.5611 16.1901 21.8199 17.2762C22.0649 17.4834 22.2965 17.706 22.5133 17.9425C23.1116 16.9939 24.0021 16.2655 25.0504 15.8671C26.0988 15.4687 27.2482 15.4219 28.3255 15.7338C29.4028 16.0456 30.3495 16.6993 31.0229 17.5961C31.6963 18.4929 32.0599 19.5844 32.0588 20.7059C32.0588 20.8307 32.1084 20.9504 32.1967 21.0387C32.2849 21.1269 32.4046 21.1765 32.5294 21.1765C32.6542 21.1765 32.7739 21.1269 32.8622 21.0387C32.9504 20.9504 33 20.8307 33 20.7059C32.9978 19.4376 32.6019 18.2012 31.8668 17.1677C31.1317 16.1341 30.0938 15.3543 28.8965 14.9359ZM24.0588 11.7647C24.0588 11.2063 24.2244 10.6604 24.5347 10.1961C24.845 9.73172 25.2859 9.36982 25.8019 9.15612C26.3178 8.94241 26.8855 8.8865 27.4332 8.99544C27.9809 9.10439 28.484 9.3733 28.8789 9.76818C29.2738 10.1631 29.5427 10.6662 29.6517 11.2139C29.7606 11.7616 29.7047 12.3293 29.491 12.8452C29.2773 13.3612 28.9154 13.8021 28.451 14.1124C27.9867 14.4227 27.4408 14.5882 26.8824 14.5882C26.1338 14.5874 25.4161 14.2897 24.8868 13.7603C24.3574 13.231 24.0597 12.5133 24.0588 11.7647Z" fill="#4D4D4D" stroke="#4D4D4D" stroke-width="0.5"/>
<path d="M5.1035 14.9359C4.41421 14.4996 3.88529 13.8511 3.59638 13.0882C3.30747 12.3253 3.2742 11.4892 3.50157 10.7057C3.72895 9.92223 4.20466 9.23382 4.8571 8.74409C5.50955 8.25436 6.30342 7.98981 7.11922 7.99027C7.93501 7.99072 8.72858 8.25616 9.38048 8.74663C10.0324 9.23709 10.5073 9.92604 10.7338 10.7098C10.9603 11.4935 10.9261 12.3296 10.6363 13.0922C10.3466 13.8548 9.81691 14.5026 9.12713 14.9382C10.3688 15.3706 11.4389 16.1901 12.1801 17.2762C11.9351 17.4834 11.7035 17.706 11.4867 17.9425C10.8884 16.9939 9.99795 16.2655 8.94959 15.8671C7.90123 15.4687 6.75176 15.4219 5.67449 15.7338C4.59721 16.0456 3.65052 16.6993 2.97712 17.5961C2.30372 18.4929 1.94013 19.5844 1.94115 20.7059C1.94115 20.8307 1.89157 20.9504 1.80332 21.0387C1.71507 21.1269 1.59537 21.1765 1.47056 21.1765C1.34575 21.1765 1.22606 21.1269 1.13781 21.0387C1.04955 20.9504 0.999974 20.8307 0.999974 20.7059C1.00216 19.4376 1.39814 18.2012 2.13321 17.1677C2.86828 16.1341 3.90617 15.3543 5.1035 14.9359ZM9.94115 11.7647C9.94115 11.2063 9.77555 10.6604 9.4653 10.1961C9.15505 9.73172 8.71407 9.36982 8.19814 9.15612C7.68221 8.94241 7.11449 8.8865 6.56678 8.99544C6.01907 9.10439 5.51596 9.3733 5.12108 9.76818C4.72621 10.1631 4.45729 10.6662 4.34834 11.2139C4.2394 11.7616 4.29531 12.3293 4.50902 12.8452C4.72273 13.3612 5.08463 13.8021 5.54895 14.1124C6.01328 14.4227 6.55918 14.5882 7.11762 14.5882C7.86621 14.5874 8.58389 14.2897 9.11322 13.7603C9.64255 13.231 9.9403 12.5133 9.94115 11.7647Z" fill="#4D4D4D" stroke="#4D4D4D" stroke-width="0.5"/>
</svg>
