<svg width="32" height="32" viewBox="0 0 32 32" fill="none" xmlns="http://www.w3.org/2000/svg">
<path d="M5.81815 13.8181L15.6362 4.54547L25.4543 13.8181L24.9089 27.4544H5.81815V13.8181Z" fill="white"/>
<path d="M21.6722 10.8183V23.0909C21.6722 23.2356 21.6147 23.3743 21.5124 23.4766C21.4101 23.5789 21.2714 23.6364 21.1267 23.6364H6.36359V26.3636C6.36359 26.5083 6.42105 26.647 6.52335 26.7493C6.62564 26.8516 6.76437 26.9091 6.90904 26.9091H24.3634C24.5081 26.9091 24.6468 26.8516 24.7491 26.7493C24.8514 26.647 24.9089 26.5083 24.9089 26.3636V13.8183H24.9448L21.6722 10.8183Z" fill="#E7E7E7"/>
<path d="M29.0957 16.1429L16.0049 4.14302C15.9042 4.05101 15.7727 4 15.6363 4C15.4999 4 15.3684 4.05101 15.2677 4.14302L2.17692 16.1429C2.07026 16.2407 2.00681 16.3768 2.00052 16.5213C1.99423 16.6659 2.04561 16.807 2.14338 16.9137C2.24114 17.0203 2.37727 17.0838 2.52182 17.0901C2.66636 17.0964 2.80749 17.045 2.91415 16.9472L5.27289 14.7851V26.3637C5.27289 26.7976 5.44529 27.2139 5.75217 27.5207C6.05904 27.8276 6.47526 28 6.90924 28H24.3636C24.7976 28 25.2138 27.8276 25.5207 27.5207C25.8276 27.2139 26 26.7976 26 26.3637V14.7856L28.3585 16.9471C28.4652 17.0449 28.6063 17.0963 28.7508 17.09C28.8954 17.0837 29.0315 17.0202 29.1293 16.9136C29.227 16.8069 29.2784 16.6658 29.2721 16.5212C29.2658 16.3767 29.2024 16.2406 29.0957 16.1428V16.1429ZM24.9091 13.8183V26.3637C24.9091 26.5083 24.8516 26.6471 24.7493 26.7493C24.647 26.8516 24.5083 26.9091 24.3636 26.9091H6.90924C6.76458 26.9091 6.62584 26.8516 6.52355 26.7493C6.42126 26.6471 6.36379 26.5083 6.36379 26.3637V13.8183H6.32779L15.6364 5.28497L24.945 13.8183H24.9091Z" fill="#4D4D4D" stroke="#4D4D4D" stroke-width="0.5"/>
</svg>
