<svg width="32" height="32" viewBox="0 0 32 32" fill="none" xmlns="http://www.w3.org/2000/svg">
<path d="M4 26V16.5C4 16.3674 4.05268 16.2402 4.14645 16.1464C4.24021 16.0527 4.36739 16 4.5 16H8V26C8 26.5304 7.78929 27.0391 7.41421 27.4142C7.03914 27.7893 6.53043 28 6 28C5.46957 28 4.96086 27.7893 4.58579 27.4142C4.21071 27.0391 4 26.5304 4 26Z" fill="#E5E5E5"/>
<path d="M26.5 5H25.7786V23.5C25.7775 24.4279 25.4084 25.3175 24.7523 25.9736C24.0961 26.6298 23.2065 26.9989 22.2786 27H8.81681C8.68446 27.3685 8.4823 27.708 8.22141 28H23.5C24.4279 27.9989 25.3175 27.6298 25.9737 26.9736C26.6298 26.3175 26.9989 25.4279 27 24.5V5.5C27 5.36739 26.9473 5.24021 26.8536 5.14645C26.7598 5.05268 26.6326 5 26.5 5Z" fill="#E5E5E5"/>
<path d="M23.5 16H12.5C12.3674 16 12.2402 16.0527 12.1464 16.1464C12.0527 16.2402 12 16.3674 12 16.5C12 16.6326 12.0527 16.7598 12.1464 16.8536C12.2402 16.9473 12.3674 17 12.5 17H23.5C23.6326 17 23.7598 16.9473 23.8536 16.8536C23.9473 16.7598 24 16.6326 24 16.5C24 16.3674 23.9473 16.2402 23.8536 16.1464C23.7598 16.0527 23.6326 16 23.5 16Z" fill="#4D4D4D" stroke="#4D4D4D" stroke-width="0.5"/>
<path d="M23.5 20H12.5C12.3674 20 12.2402 20.0527 12.1464 20.1464C12.0527 20.2402 12 20.3674 12 20.5C12 20.6326 12.0527 20.7598 12.1464 20.8536C12.2402 20.9473 12.3674 21 12.5 21H23.5C23.6326 21 23.7598 20.9473 23.8536 20.8536C23.9473 20.7598 24 20.6326 24 20.5C24 20.3674 23.9473 20.2402 23.8536 20.1464C23.7598 20.0527 23.6326 20 23.5 20Z" fill="#4D4D4D" stroke="#4D4D4D" stroke-width="0.5"/>
<path d="M20.5 24H12.5C12.3674 24 12.2402 24.0527 12.1464 24.1464C12.0527 24.2402 12 24.3674 12 24.5C12 24.6326 12.0527 24.7598 12.1464 24.8536C12.2402 24.9473 12.3674 25 12.5 25H20.5C20.6326 25 20.7598 24.9473 20.8536 24.8536C20.9473 24.7598 21 24.6326 21 24.5C21 24.3674 20.9473 24.2402 20.8536 24.1464C20.7598 24.0527 20.6326 24 20.5 24Z" fill="#4D4D4D" stroke="#4D4D4D" stroke-width="0.5"/>
<path d="M23 8H13C12.7348 8 12.4804 8.10536 12.2929 8.29289C12.1054 8.48043 12 8.73478 12 9V12C12 12.2652 12.1054 12.5196 12.2929 12.7071C12.4804 12.8946 12.7348 13 13 13H23C23.2652 13 23.5196 12.8946 23.7071 12.7071C23.8946 12.5196 24 12.2652 24 12V9C24 8.73478 23.8946 8.48043 23.7071 8.29289C23.5196 8.10536 23.2652 8 23 8ZM23 12H13V9H23V12Z" fill="#4D4D4D" stroke="#4D4D4D" stroke-width="0.5"/>
<path d="M26.5 4H9.5C9.10231 4.00042 8.72102 4.15859 8.43981 4.43981C8.15859 4.72102 8.00042 5.10231 8 5.5V15H4.5C4.10231 15.0004 3.72102 15.1586 3.43981 15.4398C3.15859 15.721 3.00042 16.1023 3 16.5V26C3 26.7956 3.31607 27.5587 3.87868 28.1213C4.44129 28.6839 5.20435 29 6 29H23.5C24.6931 28.9987 25.8369 28.5242 26.6805 27.6805C27.5242 26.8369 27.9987 25.6931 28 24.5V5.5C27.9996 5.10231 27.8414 4.72102 27.5602 4.43981C27.279 4.15859 26.8977 4.00042 26.5 4V4ZM4 26V16.5C4 16.3674 4.05268 16.2402 4.14645 16.1464C4.24021 16.0527 4.36739 16 4.5 16H8V26C8 26.5304 7.78929 27.0391 7.41421 27.4142C7.03914 27.7893 6.53043 28 6 28C5.46957 28 4.96086 27.7893 4.58579 27.4142C4.21071 27.0391 4 26.5304 4 26ZM27 24.5C26.9989 25.4279 26.6298 26.3175 25.9736 26.9736C25.3175 27.6298 24.4279 27.9989 23.5 28H8.2214C8.72052 27.4533 8.99811 26.7403 9 26V5.5C9 5.36739 9.05268 5.24021 9.14645 5.14645C9.24021 5.05268 9.36739 5 9.5 5H26.5C26.6326 5 26.7598 5.05268 26.8536 5.14645C26.9473 5.24021 27 5.36739 27 5.5V24.5Z" fill="#4D4D4D" stroke="#4D4D4D" stroke-width="0.5"/>
</svg>
