<svg width="32" height="32" viewBox="0 0 32 32" fill="none" xmlns="http://www.w3.org/2000/svg">
<path d="M26.0548 5.22528V23.6042H5.22528V21.1537L22.2039 20.016V5.22528H26.0548Z" fill="#E6E6E6"/>
<path d="M25.4421 4H5.83793C5.35049 4 4.88301 4.19363 4.53834 4.53831C4.19367 4.88298 4.00003 5.35045 4.00003 5.83789V22.9916C4.00003 23.479 4.19367 23.9465 4.53834 24.2912C4.88301 24.6358 5.35049 24.8295 5.83793 24.8295H25.4421C25.9296 24.8295 26.3971 24.6358 26.7417 24.2912C27.0864 23.9465 27.28 23.479 27.28 22.9916V5.83789C27.28 5.35045 27.0864 4.88298 26.7417 4.53831C26.3971 4.19363 25.9296 4 25.4421 4ZM26.0548 22.9916C26.0548 23.1541 25.9902 23.3099 25.8753 23.4248C25.7604 23.5397 25.6046 23.6042 25.4421 23.6042H5.83793C5.67545 23.6042 5.51962 23.5397 5.40473 23.4248C5.28984 23.3099 5.22529 23.1541 5.22529 22.9916V5.83789C5.22529 5.67541 5.28984 5.51959 5.40473 5.4047C5.51962 5.28981 5.67545 5.22526 5.83793 5.22526H25.4421C25.6046 5.22526 25.7604 5.28981 25.8753 5.4047C25.9902 5.51959 26.0548 5.67541 26.0548 5.83789V22.9916Z" fill="#4D4D4D" stroke="#4D4D4D" stroke-width="0.5"/>
<path d="M23.6042 27.8926C23.6042 27.7302 23.5397 27.5743 23.4248 27.4594C23.3099 27.3445 23.1541 27.28 22.9916 27.28L8.28843 27.28C8.12595 27.28 7.97012 27.3445 7.85523 27.4594C7.74034 27.5743 7.6758 27.7302 7.6758 27.8926C7.6758 28.0551 7.74034 28.2109 7.85523 28.3258C7.97012 28.4407 8.12595 28.5053 8.28843 28.5053L22.9916 28.5053C23.1541 28.5053 23.3099 28.4407 23.4248 28.3258C23.5397 28.2109 23.6042 28.0551 23.6042 27.8926Z" fill="#4D4D4D" stroke="#4D4D4D" stroke-width="0.5"/>
<path fill-rule="evenodd" clip-rule="evenodd" d="M19.0483 13.9788L13.1343 10.2314C13.0754 10.1939 13.0076 10.1728 12.9378 10.1703C12.8681 10.1679 12.7989 10.1842 12.7376 10.2175C12.6762 10.2509 12.6249 10.3 12.589 10.3599C12.5531 10.4198 12.534 10.4882 12.5334 10.558V18.0523C12.534 18.1221 12.5531 18.1905 12.589 18.2504C12.6249 18.3103 12.6762 18.3594 12.7376 18.3928C12.7989 18.4261 12.8681 18.4424 12.9378 18.44C13.0076 18.4375 13.0754 18.4164 13.1343 18.3789L19.0484 14.6315C19.1036 14.5968 19.1491 14.5486 19.1806 14.4916C19.2121 14.4345 19.2286 14.3703 19.2286 14.3051C19.2286 14.2399 19.2121 14.1758 19.1806 14.1187C19.149 14.0617 19.1035 14.0135 19.0483 13.9788Z" fill="#4D4D4D"/>
</svg>
